<svg xmlns="http://www.w3.org/2000/svg" width="128" height="128" viewBox="0 0 128 128" role="img" aria-labelledby="title desc">
  <title id="title">LanguageAgent icon</title>
  <desc id="desc">Compact LanguageAgent speech bubble and page mark.</desc>
  <defs>
    <linearGradient id="la-icon-gradient" x1="14" y1="14" x2="114" y2="114" gradientUnits="userSpaceOnUse">
      <stop offset="0" stop-color="#32d3ad"/>
      <stop offset="0.58" stop-color="#168f74"/>
      <stop offset="1" stop-color="#4f61c8"/>
    </linearGradient>
  </defs>
  <path fill="url(#la-icon-gradient)" d="M11 55c0-22.64 18.36-41 41-41h24c22.64 0 41 18.36 41 41v11c0 22.64-18.36 41-41 41H57.46l-27.97 14.42c-5.68 2.93-12.28-2.15-10.83-8.37l6.94-29.94C16.99 75.57 11 65.38 11 55Z"/>
  <path fill="#fff" d="M39 42c0-5.52 4.48-10 10-10h34c5.52 0 10 4.48 10 10v36c0 5.52-4.48 10-10 10H49c-5.52 0-10-4.48-10-10V42Z" opacity=".96"/>
  <path fill="#d9fbf2" d="M77 32h6c5.52 0 10 4.48 10 10v6h-6c-5.52 0-10-4.48-10-10v-6Z"/>
  <path stroke="#168f74" stroke-linecap="round" stroke-width="5.5" d="M51 53h28M51 68h20"/>
  <path stroke="#4f61c8" stroke-linecap="round" stroke-width="5.5" d="M58 83h14"/>
</svg>
